<svg width="177" height="35" viewBox="0 0 177 35" fill="none" xmlns="http://www.w3.org/2000/svg">
<path fill-rule="evenodd" clip-rule="evenodd" d="M12.5384 3.00225L4.61319 5.42498C3.79522 5.67503 3.23241 6.42476 3.22064 7.28001L2.92519 28.75C2.89776 30.7437 4.81696 32.1886 6.72534 31.6109L14.2792 29.3243L14.7294 4.65467C14.7504 3.50241 13.6405 2.66533 12.5384 3.00225ZM17.1648 31.5067L17.6538 4.70803C17.7111 1.56809 14.6866 -0.712967 11.6833 0.205132L3.75811 2.62787C1.72453 3.24953 0.325289 5.11348 0.29603 7.23976L0.000579235 28.7098C-0.054089 32.6825 3.77012 35.5614 7.57276 34.4103L17.1648 31.5067Z" fill="white"/>
<path fill-rule="evenodd" clip-rule="evenodd" d="M16.8103 10.0565L16.5343 28.6467L24.1063 26.4129C25.3506 26.0458 26.2084 24.9081 26.219 23.6108L26.3312 9.94155C26.3441 8.36779 24.7921 7.25772 23.3069 7.77848L16.8103 10.0565ZM24.9339 29.2182C27.4133 28.4868 29.1226 26.2198 29.1438 23.6348L29.256 9.96555C29.2855 6.36619 25.7358 3.82731 22.3391 5.01836L13.9161 7.9719L13.5508 32.5764L24.9339 29.2182Z" fill="white"/>
<path fill-rule="evenodd" clip-rule="evenodd" d="M12.1406 3.06048L4.3272 5.52348C3.77583 5.69729 3.36634 6.16256 3.26397 6.73154C2.93113 8.58139 4.71815 10.1022 6.49101 9.47801L14.7004 6.58723V4.93752C14.7004 3.60772 13.4089 2.66068 12.1406 3.06048ZM17.6253 8.65821V4.93752C17.6253 1.63142 14.4144 -0.723062 11.2612 0.270903L3.44784 2.73391C1.85967 3.23455 0.680181 4.5747 0.385302 6.21359C-0.344638 10.2704 3.57445 13.6059 7.46249 12.2368L17.6253 8.65821Z" fill="white"/>
<path d="M44.0674 26.6147V6.1436H57.0812V8.65863H47.1673V15.0339H56.2038V17.4904H47.1673V24.0997H57.0812V26.6147H44.0674ZM66.8098 26.9656C65.406 26.9656 64.168 26.6342 63.0957 25.9713C62.0234 25.3084 61.1851 24.4019 60.5807 23.2516C59.9763 22.1013 59.6741 20.795 59.6741 19.3328C59.6741 17.8706 59.9763 16.5741 60.5807 15.4433C61.1851 14.293 62.0234 13.3962 63.0957 12.7528C64.1875 12.0899 65.4353 11.7585 66.839 11.7585C67.9893 11.7585 68.9934 11.9827 69.8512 12.4311C70.7285 12.8795 71.4109 13.5132 71.8983 14.332V5.55872H74.9982V26.6147H72.22L71.8983 24.3629C71.4304 25.0452 70.787 25.6496 69.9682 26.176C69.1493 26.7024 68.0965 26.9656 66.8098 26.9656ZM67.3654 24.2751C68.6912 24.2751 69.7732 23.817 70.6115 22.9006C71.4694 21.9843 71.8983 20.8048 71.8983 19.3621C71.8983 17.8998 71.4694 16.7203 70.6115 15.8235C69.7732 14.9072 68.6912 14.449 67.3654 14.449C66.0397 14.449 64.9479 14.9072 64.09 15.8235C63.2322 16.7203 62.8033 17.8998 62.8033 19.3621C62.8033 20.3174 62.9982 21.1655 63.3882 21.9063C63.7781 22.6472 64.3142 23.2321 64.9966 23.661C65.6985 24.0704 66.4881 24.2751 67.3654 24.2751ZM83.8015 26.9656C82.0468 26.9656 80.6626 26.4197 79.6488 25.3279C78.6545 24.2361 78.1573 22.6082 78.1573 20.4441V12.1094H81.2572V20.1224C81.2572 22.9299 82.4075 24.3336 84.7081 24.3336C85.8584 24.3336 86.8039 23.9242 87.5448 23.1054C88.2857 22.2865 88.6561 21.1167 88.6561 19.596V12.1094H91.756V26.6147H89.007L88.7731 24.0704C88.3247 24.9673 87.6618 25.6789 86.7844 26.2053C85.9266 26.7122 84.9323 26.9656 83.8015 26.9656ZM102.114 26.9656C100.691 26.9656 99.4147 26.6439 98.2839 26.0006C97.1726 25.3572 96.2953 24.4701 95.6519 23.3393C95.028 22.189 94.7161 20.8633 94.7161 19.3621C94.7161 17.8608 95.028 16.5448 95.6519 15.4141C96.2953 14.2638 97.1726 13.3669 98.2839 12.7236C99.4147 12.0802 100.691 11.7585 102.114 11.7585C103.908 11.7585 105.409 12.2264 106.618 13.1622C107.846 14.0981 108.636 15.3653 108.987 16.964H105.741C105.546 16.1647 105.117 15.5408 104.454 15.0924C103.791 14.644 103.011 14.4197 102.114 14.4197C101.354 14.4197 100.652 14.6147 100.009 15.0046C99.366 15.3751 98.8493 15.9307 98.4594 16.6716C98.0695 17.3929 97.8745 18.2898 97.8745 19.3621C97.8745 20.4344 98.0695 21.3409 98.4594 22.0818C98.8493 22.8032 99.366 23.3588 100.009 23.7487C100.652 24.1387 101.354 24.3336 102.114 24.3336C103.011 24.3336 103.791 24.1094 104.454 23.661C105.117 23.2126 105.546 22.579 105.741 21.7601H108.987C108.655 23.3198 107.876 24.5773 106.647 25.5327C105.419 26.488 103.908 26.9656 102.114 26.9656ZM116.805 26.9656C115.577 26.9656 114.563 26.7609 113.764 26.3515C112.964 25.9421 112.37 25.4059 111.98 24.7431C111.59 24.0607 111.395 23.3198 111.395 22.5205C111.395 21.1167 111.941 20.0054 113.032 19.1866C114.124 18.3678 115.684 17.9583 117.712 17.9583H121.513V17.6951C121.513 16.5643 121.201 15.7163 120.578 15.1509C119.973 14.5855 119.184 14.3028 118.209 14.3028C117.351 14.3028 116.6 14.5172 115.957 14.9461C115.333 15.3556 114.953 15.9697 114.816 16.7886H111.716C111.814 15.7357 112.165 14.8389 112.769 14.0981C113.393 13.3377 114.173 12.7626 115.109 12.3726C116.064 11.9632 117.107 11.7585 118.238 11.7585C120.266 11.7585 121.835 12.2946 122.946 13.3669C124.058 14.4197 124.613 15.8625 124.613 17.6951V26.6147H121.923L121.66 24.1289C121.25 24.9283 120.656 25.6009 119.876 26.1468C119.096 26.6927 118.072 26.9656 116.805 26.9656ZM117.419 24.4506C118.257 24.4506 118.959 24.2556 119.525 23.8657C120.11 23.4563 120.558 22.9201 120.87 22.2573C121.201 21.5944 121.406 20.8633 121.484 20.0639H118.033C116.805 20.0639 115.928 20.2784 115.401 20.7073C114.894 21.1362 114.641 21.6724 114.641 22.3158C114.641 22.9786 114.885 23.505 115.372 23.895C115.879 24.2654 116.561 24.4506 117.419 24.4506ZM133.568 26.6147C132.145 26.6147 131.014 26.2735 130.176 25.5911C129.337 24.8893 128.918 23.6513 128.918 21.8771V14.7122H126.432V12.1094H128.918L129.298 8.42468H132.018V12.1094H136.112V14.7122H132.018V21.8771C132.018 22.6764 132.184 23.2321 132.515 23.544C132.866 23.8365 133.461 23.9827 134.299 23.9827H135.966V26.6147H133.568ZM140.606 9.3605C140.021 9.3605 139.534 9.18503 139.144 8.8341C138.774 8.46367 138.588 8.0055 138.588 7.45961C138.588 6.91371 138.774 6.46529 139.144 6.11436C139.534 5.74393 140.021 5.55872 140.606 5.55872C141.191 5.55872 141.669 5.74393 142.039 6.11436C142.429 6.46529 142.624 6.91371 142.624 7.45961C142.624 8.0055 142.429 8.46367 142.039 8.8341C141.669 9.18503 141.191 9.3605 140.606 9.3605ZM139.056 26.6147V12.1094H142.156V26.6147H139.056ZM152.576 26.9656C151.192 26.9656 149.944 26.6537 148.833 26.0298C147.741 25.3864 146.874 24.4993 146.23 23.3686C145.587 22.2183 145.265 20.8828 145.265 19.3621C145.265 17.8414 145.587 16.5156 146.23 15.3848C146.893 14.2345 147.78 13.3474 148.891 12.7236C150.003 12.0802 151.241 11.7585 152.606 11.7585C153.99 11.7585 155.228 12.0802 156.32 12.7236C157.431 13.3474 158.308 14.2345 158.952 15.3848C159.614 16.5156 159.946 17.8414 159.946 19.3621C159.946 20.8828 159.614 22.2183 158.952 23.3686C158.308 24.4993 157.431 25.3864 156.32 26.0298C155.208 26.6537 153.961 26.9656 152.576 26.9656ZM152.576 24.3044C153.317 24.3044 154 24.1192 154.623 23.7487C155.267 23.3783 155.783 22.8324 156.173 22.111C156.563 21.3702 156.758 20.4539 156.758 19.3621C156.758 18.2703 156.563 17.3637 156.173 16.6423C155.803 15.9015 155.296 15.3458 154.653 14.9754C154.029 14.605 153.346 14.4197 152.606 14.4197C151.865 14.4197 151.173 14.605 150.529 14.9754C149.905 15.3458 149.398 15.9015 149.008 16.6423C148.619 17.3637 148.424 18.2703 148.424 19.3621C148.424 20.4539 148.619 21.3702 149.008 22.111C149.398 22.8324 149.905 23.3783 150.529 23.7487C151.153 24.1192 151.835 24.3044 152.576 24.3044ZM162.841 26.6147V12.1094H165.59L165.824 14.6537C166.273 13.7569 166.926 13.055 167.784 12.5481C168.661 12.0217 169.665 11.7585 170.796 11.7585C172.55 11.7585 173.925 12.3044 174.919 13.3962C175.933 14.488 176.44 16.1159 176.44 18.28V26.6147H173.369V18.6017C173.369 15.7942 172.219 14.3905 169.918 14.3905C168.768 14.3905 167.813 14.7999 167.053 15.6188C166.312 16.4376 165.941 17.6074 165.941 19.1281V26.6147H162.841Z" fill="white"/>
</svg>
