<svg width="177" height="36" viewBox="0 0 177 36" fill="none" xmlns="http://www.w3.org/2000/svg">
<path fill-rule="evenodd" clip-rule="evenodd" d="M12.6639 3.3875L4.73871 5.81023C3.92074 6.06028 3.35793 6.81001 3.34616 7.66526L3.05071 29.1353C3.02328 31.129 4.94248 32.5739 6.85086 31.9962L14.4047 29.7096L14.8549 5.03992C14.8759 3.88766 13.766 3.05058 12.6639 3.3875ZM17.2903 31.892L17.7793 5.09328C17.8366 1.95334 14.8121 -0.327713 11.8088 0.590386L3.88363 3.01312C1.85005 3.63478 0.450808 5.49873 0.421549 7.62501L0.126098 29.0951C0.0714298 33.0678 3.89564 35.9467 7.69828 34.7956L17.2903 31.892Z" fill="#0F437F"/>
<path fill-rule="evenodd" clip-rule="evenodd" d="M16.9358 10.4418L16.6598 29.032L24.2318 26.7982C25.4761 26.4311 26.3339 25.2934 26.3445 23.9961L26.4567 10.3268C26.4696 8.75304 24.9176 7.64297 23.4324 8.16373L16.9358 10.4418ZM25.0594 29.6035C27.5388 28.8721 29.2481 26.6051 29.2693 24.0201L29.3815 10.3508C29.411 6.75144 25.8613 4.21256 22.4646 5.40361L14.0416 8.35715L13.6763 32.9617L25.0594 29.6035Z" fill="#0F437F"/>
<path fill-rule="evenodd" clip-rule="evenodd" d="M12.2661 3.44573L4.45272 5.90873C3.90135 6.08254 3.49186 6.54781 3.38949 7.11679C3.05665 8.96664 4.84367 10.4875 6.61653 9.86326L14.8259 6.97248V5.32277C14.8259 3.99297 13.5344 3.04593 12.2661 3.44573ZM17.7508 9.04346V5.32277C17.7508 2.01667 14.5399 -0.337808 11.3867 0.656157L3.57336 3.11916C1.98519 3.6198 0.805699 4.95995 0.51082 6.59884C-0.21912 10.6557 3.69997 13.9912 7.58801 12.6221L17.7508 9.04346Z" fill="#0F437F"/>
<path d="M44.1929 27V6.52885H57.2067V9.04388H47.2928V15.4192H56.3293V17.8757H47.2928V24.485H57.2067V27H44.1929ZM66.9353 27.3509C65.5315 27.3509 64.2935 27.0195 63.2212 26.3566C62.1489 25.6937 61.3106 24.7872 60.7062 23.6369C60.1018 22.4866 59.7996 21.1803 59.7996 19.7181C59.7996 18.2559 60.1018 16.9594 60.7062 15.8286C61.3106 14.6783 62.1489 13.7815 63.2212 13.1381C64.313 12.4752 65.5608 12.1438 66.9645 12.1438C68.1148 12.1438 69.1189 12.368 69.9767 12.8164C70.854 13.2648 71.5364 13.8985 72.0238 14.7173V5.94397H75.1237V27H72.3455L72.0238 24.7482C71.5559 25.4305 70.9125 26.0349 70.0937 26.5613C69.2748 27.0877 68.222 27.3509 66.9353 27.3509ZM67.4909 24.6604C68.8167 24.6604 69.8987 24.2023 70.737 23.2859C71.5949 22.3696 72.0238 21.1901 72.0238 19.7474C72.0238 18.2851 71.5949 17.1056 70.737 16.2088C69.8987 15.2925 68.8167 14.8343 67.4909 14.8343C66.1652 14.8343 65.0734 15.2925 64.2155 16.2088C63.3577 17.1056 62.9288 18.2851 62.9288 19.7474C62.9288 20.7027 63.1237 21.5508 63.5137 22.2916C63.9036 23.0325 64.4397 23.6174 65.1221 24.0463C65.824 24.4557 66.6136 24.6604 67.4909 24.6604ZM83.927 27.3509C82.1723 27.3509 80.7881 26.805 79.7743 25.7132C78.78 24.6214 78.2828 22.9935 78.2828 20.8294V12.4947H81.3827V20.5077C81.3827 23.3152 82.533 24.7189 84.8336 24.7189C85.9839 24.7189 86.9294 24.3095 87.6703 23.4907C88.4112 22.6718 88.7816 21.502 88.7816 19.9813V12.4947H91.8815V27H89.1325L88.8986 24.4557C88.4502 25.3526 87.7873 26.0642 86.9099 26.5906C86.0521 27.0975 85.0578 27.3509 83.927 27.3509ZM102.24 27.3509C100.817 27.3509 99.5402 27.0292 98.4094 26.3859C97.2981 25.7425 96.4208 24.8554 95.7774 23.7246C95.1535 22.5743 94.8416 21.2486 94.8416 19.7474C94.8416 18.2461 95.1535 16.9301 95.7774 15.7994C96.4208 14.6491 97.2981 13.7522 98.4094 13.1089C99.5402 12.4655 100.817 12.1438 102.24 12.1438C104.034 12.1438 105.535 12.6117 106.744 13.5475C107.972 14.4834 108.762 15.7506 109.113 17.3493H105.867C105.672 16.55 105.243 15.9261 104.58 15.4777C103.917 15.0293 103.137 14.805 102.24 14.805C101.48 14.805 100.778 15 100.135 15.3899C99.4915 15.7604 98.9748 16.316 98.5849 17.0569C98.195 17.7782 98 18.6751 98 19.7474C98 20.8197 98.195 21.7262 98.5849 22.4671C98.9748 23.1885 99.4915 23.7441 100.135 24.134C100.778 24.524 101.48 24.7189 102.24 24.7189C103.137 24.7189 103.917 24.4947 104.58 24.0463C105.243 23.5979 105.672 22.9643 105.867 22.1454H109.113C108.781 23.7051 108.002 24.9626 106.773 25.918C105.545 26.8733 104.034 27.3509 102.24 27.3509ZM116.931 27.3509C115.703 27.3509 114.689 27.1462 113.89 26.7368C113.09 26.3274 112.496 25.7912 112.106 25.1284C111.716 24.446 111.521 23.7051 111.521 22.9058C111.521 21.502 112.067 20.3907 113.158 19.5719C114.25 18.7531 115.81 18.3436 117.838 18.3436H121.639V18.0804C121.639 16.9496 121.327 16.1016 120.704 15.5362C120.099 14.9708 119.31 14.6881 118.335 14.6881C117.477 14.6881 116.726 14.9025 116.083 15.3314C115.459 15.7409 115.079 16.355 114.942 17.1739H111.842C111.94 16.121 112.291 15.2242 112.895 14.4834C113.519 13.723 114.299 13.1479 115.235 12.7579C116.19 12.3485 117.233 12.1438 118.364 12.1438C120.392 12.1438 121.961 12.6799 123.072 13.7522C124.184 14.805 124.739 16.2478 124.739 18.0804V27H122.049L121.786 24.5142C121.376 25.3136 120.782 25.9862 120.002 26.5321C119.222 27.078 118.198 27.3509 116.931 27.3509ZM117.545 24.8359C118.383 24.8359 119.085 24.6409 119.651 24.251C120.236 23.8416 120.684 23.3054 120.996 22.6426C121.327 21.9797 121.532 21.2486 121.61 20.4492H118.159C116.931 20.4492 116.054 20.6637 115.527 21.0926C115.02 21.5215 114.767 22.0577 114.767 22.7011C114.767 23.3639 115.011 23.8903 115.498 24.2803C116.005 24.6507 116.687 24.8359 117.545 24.8359ZM133.694 27C132.271 27 131.14 26.6588 130.302 25.9764C129.463 25.2746 129.044 24.0366 129.044 22.2624V15.0975H126.558V12.4947H129.044L129.424 8.80993H132.144V12.4947H136.238V15.0975H132.144V22.2624C132.144 23.0617 132.31 23.6174 132.641 23.9293C132.992 24.2218 133.587 24.368 134.425 24.368H136.092V27H133.694ZM140.732 9.74575C140.147 9.74575 139.66 9.57028 139.27 9.21935C138.9 8.84892 138.714 8.39075 138.714 7.84486C138.714 7.29896 138.9 6.85054 139.27 6.49961C139.66 6.12918 140.147 5.94397 140.732 5.94397C141.317 5.94397 141.795 6.12918 142.165 6.49961C142.555 6.85054 142.75 7.29896 142.75 7.84486C142.75 8.39075 142.555 8.84892 142.165 9.21935C141.795 9.57028 141.317 9.74575 140.732 9.74575ZM139.182 27V12.4947H142.282V27H139.182ZM152.702 27.3509C151.318 27.3509 150.07 27.039 148.959 26.4151C147.867 25.7717 147 24.8846 146.356 23.7539C145.713 22.6036 145.391 21.2681 145.391 19.7474C145.391 18.2267 145.713 16.9009 146.356 15.7701C147.019 14.6198 147.906 13.7327 149.017 13.1089C150.129 12.4655 151.367 12.1438 152.732 12.1438C154.116 12.1438 155.354 12.4655 156.446 13.1089C157.557 13.7327 158.434 14.6198 159.078 15.7701C159.74 16.9009 160.072 18.2267 160.072 19.7474C160.072 21.2681 159.74 22.6036 159.078 23.7539C158.434 24.8846 157.557 25.7717 156.446 26.4151C155.334 27.039 154.087 27.3509 152.702 27.3509ZM152.702 24.6897C153.443 24.6897 154.126 24.5045 154.749 24.134C155.393 23.7636 155.909 23.2177 156.299 22.4963C156.689 21.7555 156.884 20.8392 156.884 19.7474C156.884 18.6556 156.689 17.749 156.299 17.0276C155.929 16.2868 155.422 15.7311 154.779 15.3607C154.155 14.9903 153.472 14.805 152.732 14.805C151.991 14.805 151.299 14.9903 150.655 15.3607C150.031 15.7311 149.524 16.2868 149.134 17.0276C148.745 17.749 148.55 18.6556 148.55 19.7474C148.55 20.8392 148.745 21.7555 149.134 22.4963C149.524 23.2177 150.031 23.7636 150.655 24.134C151.279 24.5045 151.961 24.6897 152.702 24.6897ZM162.967 27V12.4947H165.716L165.95 15.039C166.399 14.1422 167.052 13.4403 167.91 12.9334C168.787 12.407 169.791 12.1438 170.922 12.1438C172.676 12.1438 174.051 12.6897 175.045 13.7815C176.059 14.8733 176.566 16.5012 176.566 18.6653V27H173.495V18.987C173.495 16.1795 172.345 14.7758 170.044 14.7758C168.894 14.7758 167.939 15.1852 167.179 16.0041C166.438 16.8229 166.067 17.9927 166.067 19.5134V27H162.967Z" fill="#0F437F"/>
</svg>
