<svg width="30" height="35" viewBox="0 0 30 35" fill="none" xmlns="http://www.w3.org/2000/svg">
<path d="M26.6667 8.33333H23.3333C23.3333 3.66667 19.6667 0 15 0C10.3333 0 6.66667 3.66667 6.66667 8.33333H3.33333C1.5 8.33333 0 9.83333 0 11.6667V31.6667C0 33.5 1.5 35 3.33333 35H26.6667C28.5 35 30 33.5 30 31.6667V11.6667C30 9.83333 28.5 8.33333 26.6667 8.33333ZM15 3.33333C17.8333 3.33333 20 5.5 20 8.33333H10C10 5.5 12.1667 3.33333 15 3.33333ZM26.6667 31.6667H3.33333V11.6667H26.6667V31.6667ZM15 18.3333C12.1667 18.3333 10 16.1667 10 13.3333H6.66667C6.66667 18 10.3333 21.6667 15 21.6667C19.6667 21.6667 23.3333 18 23.3333 13.3333H20C20 16.1667 17.8333 18.3333 15 18.3333Z" fill="#0F437F"/>
</svg>
