<svg width="100" height="100" viewBox="0 0 100 100" fill="none" xmlns="http://www.w3.org/2000/svg">
<rect width="100" height="100" fill="#0F437F"/>
<path fill-rule="evenodd" clip-rule="evenodd" d="M46.1481 23.5427L31.5168 28.0155C30.0066 28.4771 28.9676 29.8612 28.9459 31.4402L28.4004 71.0777C28.3498 74.7584 31.893 77.4259 35.4162 76.3594L49.3619 72.1379L50.193 26.5933C50.2318 24.4661 48.1827 22.9207 46.1481 23.5427ZM54.6892 76.167L55.592 26.6918C55.6978 20.895 50.114 16.6837 44.5694 18.3787L29.9381 22.8515C26.1838 23.9992 23.6005 27.4404 23.5465 31.3659L23.0011 71.0034C22.9001 78.3377 29.9603 83.6527 36.9807 81.5276L54.6892 76.167Z" fill="white"/>
<path fill-rule="evenodd" clip-rule="evenodd" d="M54.0347 36.5662L53.5252 70.8869L67.5044 66.763C69.8016 66.0852 71.3853 63.9848 71.4049 61.5898L71.612 36.3539C71.6358 33.4484 68.7705 31.399 66.0286 32.3604L54.0347 36.5662ZM69.0323 71.942C73.6097 70.5917 76.7654 66.4065 76.8046 61.6341L77.0117 36.3982C77.0662 29.7531 70.5128 25.0659 64.2419 27.2648L48.6915 32.7175L48.0171 78.1419L69.0323 71.942Z" fill="white"/>
<path fill-rule="evenodd" clip-rule="evenodd" d="M45.4135 23.6502L30.9886 28.1973C29.9707 28.5182 29.2147 29.3771 29.0257 30.4276C28.4113 33.8427 31.7104 36.6505 34.9834 35.4981L50.1394 30.1612V27.1155C50.1394 24.6605 47.755 22.9121 45.4135 23.6502ZM55.5392 33.9846V27.1155C55.5392 21.0119 49.6114 16.6651 43.79 18.5001L29.3652 23.0473C26.4332 23.9715 24.2556 26.4457 23.7112 29.4714C22.3636 36.961 29.5989 43.119 36.7769 40.5914L55.5392 33.9846Z" fill="white"/>
</svg>
